<svg width="80" height="29" viewBox="0 0 80 29" fill="none" xmlns="http://www.w3.org/2000/svg">
<path d="M11.1874 4.3723V16.0745H7.86144V11.5106H3.326V16.0745H0V4.3723H3.326V8.76897H7.86144V4.3723H11.1874Z" fill="#111518"/>
<path d="M23.3603 11.5608C23.3603 11.5831 23.3435 11.845 23.3099 12.3465H16.6915C16.8259 12.8146 17.0835 13.1768 17.4642 13.4331C17.8562 13.6783 18.3433 13.8009 18.9257 13.8009C19.3624 13.8009 19.7376 13.7396 20.0511 13.617C20.3759 13.4944 20.7006 13.2938 21.0254 13.0152L22.7052 14.7538C21.8205 15.7345 20.5271 16.2249 18.8249 16.2249C17.761 16.2249 16.8259 16.0243 16.0196 15.6231C15.2133 15.2219 14.5862 14.6646 14.1382 13.9514C13.7015 13.2381 13.4831 12.4301 13.4831 11.5273C13.4831 10.6357 13.6959 9.83888 14.1214 9.13675C14.5582 8.42348 15.1573 7.86623 15.9188 7.46501C16.6803 7.0638 17.537 6.86319 18.4889 6.86319C19.396 6.86319 20.2191 7.05265 20.9582 7.43158C21.6973 7.79936 22.2796 8.33989 22.7052 9.05316C23.1419 9.75529 23.3603 10.5912 23.3603 11.5608ZM18.5057 9.12003C18.013 9.12003 17.5986 9.25935 17.2627 9.53797C16.9379 9.81659 16.7307 10.1955 16.6411 10.6747H20.3703C20.2807 10.1955 20.0679 9.81659 19.732 9.53797C19.4072 9.25935 18.9984 9.12003 18.5057 9.12003Z" fill="#111518"/>
<path d="M25.5038 3.67017H28.6954V16.0745H25.5038V3.67017Z" fill="#111518"/>
<path d="M31.4414 3.67017H34.6331V16.0745H31.4414V3.67017Z" fill="#111518"/>
<path d="M3.625 24.5283V28.0283H2.815V26.5933H1.225V28.0283H0.415V24.5283H1.225V25.9083H2.815V24.5283H3.625ZM8.06309 27.3783V28.0283H5.35309V24.5283H7.99809V25.1783H6.15809V25.9383H7.78309V26.5683H6.15809V27.3783H8.06309ZM9.60758 24.5283H10.4176V27.3683H12.1726V28.0283H9.60758V24.5283ZM13.5252 24.5283H14.3352V27.3683H16.0902V28.0283H13.5252V24.5283ZM17.4427 24.5283H18.2527V28.0283H17.4427V24.5283ZM21.1334 28.0883C20.8567 28.0883 20.5884 28.0517 20.3284 27.9783C20.0717 27.9017 19.865 27.8033 19.7084 27.6833L19.9834 27.0733C20.1334 27.1833 20.3117 27.2717 20.5184 27.3383C20.725 27.405 20.9317 27.4383 21.1384 27.4383C21.3684 27.4383 21.5384 27.405 21.6484 27.3383C21.7584 27.2683 21.8134 27.1767 21.8134 27.0633C21.8134 26.98 21.78 26.9117 21.7134 26.8583C21.65 26.8017 21.5667 26.7567 21.4634 26.7233C21.3634 26.69 21.2267 26.6533 21.0534 26.6133C20.7867 26.55 20.5684 26.4867 20.3984 26.4233C20.2284 26.36 20.0817 26.2583 19.9584 26.1183C19.8384 25.9783 19.7784 25.7917 19.7784 25.5583C19.7784 25.355 19.8334 25.1717 19.9434 25.0083C20.0534 24.8417 20.2184 24.71 20.4384 24.6133C20.6617 24.5167 20.9334 24.4683 21.2534 24.4683C21.4767 24.4683 21.695 24.495 21.9084 24.5483C22.1217 24.6017 22.3084 24.6783 22.4684 24.7783L22.2184 25.3933C21.895 25.21 21.5717 25.1183 21.2484 25.1183C21.0217 25.1183 20.8534 25.155 20.7434 25.2283C20.6367 25.3017 20.5834 25.3983 20.5834 25.5183C20.5834 25.6383 20.645 25.7283 20.7684 25.7883C20.895 25.845 21.0867 25.9017 21.3434 25.9583C21.61 26.0217 21.8284 26.085 21.9984 26.1483C22.1684 26.2117 22.3134 26.3117 22.4334 26.4483C22.5567 26.585 22.6184 26.77 22.6184 27.0033C22.6184 27.2033 22.5617 27.3867 22.4484 27.5533C22.3384 27.7167 22.1717 27.8467 21.9484 27.9433C21.725 28.04 21.4534 28.0883 21.1334 28.0883ZM27.2818 24.5283V28.0283H26.4718V26.5933H24.8818V28.0283H24.0718V24.5283H24.8818V25.9083H26.4718V24.5283H27.2818Z" fill="#FF6B09"/>
<path d="M34.0359 27.3783V28.0283H31.3259V24.5283H33.9709V25.1783H32.1309V25.9383H33.7559V26.5683H32.1309V27.3783H34.0359ZM38.7904 24.5283V28.0283H38.1254L36.3804 25.9033V28.0283H35.5804V24.5283H36.2504L37.9904 26.6533V24.5283H38.7904ZM42.8835 26.2233H43.6235V27.6433C43.4335 27.7867 43.2135 27.8967 42.9635 27.9733C42.7135 28.05 42.4618 28.0883 42.2085 28.0883C41.8452 28.0883 41.5185 28.0117 41.2285 27.8583C40.9385 27.7017 40.7102 27.4867 40.5435 27.2133C40.3802 26.9367 40.2985 26.625 40.2985 26.2783C40.2985 25.9317 40.3802 25.6217 40.5435 25.3483C40.7102 25.0717 40.9402 24.8567 41.2335 24.7033C41.5268 24.5467 41.8568 24.4683 42.2235 24.4683C42.5302 24.4683 42.8085 24.52 43.0585 24.6233C43.3085 24.7267 43.5185 24.8767 43.6885 25.0733L43.1685 25.5533C42.9185 25.29 42.6168 25.1583 42.2635 25.1583C42.0402 25.1583 41.8418 25.205 41.6685 25.2983C41.4952 25.3917 41.3602 25.5233 41.2635 25.6933C41.1668 25.8633 41.1185 26.0583 41.1185 26.2783C41.1185 26.495 41.1668 26.6883 41.2635 26.8583C41.3602 27.0283 41.4935 27.1617 41.6635 27.2583C41.8368 27.3517 42.0335 27.3983 42.2535 27.3983C42.4868 27.3983 42.6968 27.3483 42.8835 27.2483V26.2233ZM45.2759 24.5283H46.0859V27.3683H47.8409V28.0283H45.2759V24.5283ZM49.1935 24.5283H50.0035V28.0283H49.1935V24.5283ZM52.8841 28.0883C52.6075 28.0883 52.3391 28.0517 52.0791 27.9783C51.8225 27.9017 51.6158 27.8033 51.4591 27.6833L51.7341 27.0733C51.8841 27.1833 52.0625 27.2717 52.2691 27.3383C52.4758 27.405 52.6825 27.4383 52.8891 27.4383C53.1191 27.4383 53.2891 27.405 53.3991 27.3383C53.5091 27.2683 53.5641 27.1767 53.5641 27.0633C53.5641 26.98 53.5308 26.9117 53.4641 26.8583C53.4008 26.8017 53.3175 26.7567 53.2141 26.7233C53.1141 26.69 52.9775 26.6533 52.8041 26.6133C52.5375 26.55 52.3191 26.4867 52.1491 26.4233C51.9791 26.36 51.8325 26.2583 51.7091 26.1183C51.5891 25.9783 51.5291 25.7917 51.5291 25.5583C51.5291 25.355 51.5841 25.1717 51.6941 25.0083C51.8041 24.8417 51.9691 24.71 52.1891 24.6133C52.4125 24.5167 52.6841 24.4683 53.0041 24.4683C53.2275 24.4683 53.4458 24.495 53.6591 24.5483C53.8725 24.6017 54.0591 24.6783 54.2191 24.7783L53.9691 25.3933C53.6458 25.21 53.3225 25.1183 52.9991 25.1183C52.7725 25.1183 52.6041 25.155 52.4941 25.2283C52.3875 25.3017 52.3341 25.3983 52.3341 25.5183C52.3341 25.6383 52.3958 25.7283 52.5191 25.7883C52.6458 25.845 52.8375 25.9017 53.0941 25.9583C53.3608 26.0217 53.5791 26.085 53.7491 26.1483C53.9191 26.2117 54.0641 26.3117 54.1841 26.4483C54.3075 26.585 54.3691 26.77 54.3691 27.0033C54.3691 27.2033 54.3125 27.3867 54.1991 27.5533C54.0891 27.7167 53.9225 27.8467 53.6991 27.9433C53.4758 28.04 53.2041 28.0883 52.8841 28.0883ZM59.0326 24.5283V28.0283H58.2226V26.5933H56.6326V28.0283H55.8226V24.5283H56.6326V25.9083H58.2226V24.5283H59.0326Z" fill="#111518"/>
<path d="M66.2949 13.5167V16.0745H56.8545V4.37231H66.0766V6.93007H60.1469V8.90273H65.3711V11.3769H60.1469V13.5167H66.2949Z" fill="#111518"/>
<path d="M80 4.37231V16.0745H77.2619L72.0713 9.8389V16.0745H68.8125V4.37231H71.5506L76.7412 10.6079V4.37231H80Z" fill="#111518"/>
<g clip-path="url(#clip0_12_27)">
<path d="M52.1512 10.0019C51.9795 9.61907 51.7426 9.24205 51.3961 8.80658C50.5226 7.71352 50.256 5.27605 50.2531 5.25267C50.2412 5.13577 50.1583 5.03932 50.0488 5.00425C49.9362 4.96918 49.8148 5.00133 49.7349 5.08901C48.6925 6.24929 49.1308 8.04085 49.3677 8.75689C49.4328 8.95271 49.5039 9.1836 49.5542 9.41741C49.9392 11.3083 49.1959 12.1647 49.0212 12.3371C48.8524 12.3839 48.7369 12.3605 48.6303 12.2465C48.2631 11.8461 48.1417 10.5338 48.3135 8.82411C48.349 8.47632 48.3401 8.1636 48.2898 7.87134C47.9276 5.76989 46.5995 4.42192 46.2614 3.94919C45.3316 2.5814 45.2368 0.304679 45.2339 0.284221C45.2309 0.176084 45.1687 0.0796377 45.071 0.0328758C44.9762 -0.0138861 44.8608 -0.00804087 44.7719 0.0533341C43.2203 1.10255 43.3535 3.63062 43.5697 5.04224C43.62 5.36958 43.7177 5.70276 43.8865 6.12361C44.4876 7.62876 43.7681 9.5723 43.7622 9.58984C43.7562 9.60738 43.7503 9.62199 43.7474 9.63952C43.6556 10.1188 43.5016 10.4052 43.3298 10.4052C43.3121 10.4052 43.2943 10.4023 43.2736 10.3965C43.0633 10.3526 42.9538 10.1305 42.9508 9.93763C42.9389 7.44464 40.4249 6.60585 40.3983 6.59708C40.2857 6.56201 40.1614 6.59415 40.0844 6.68476C40.0044 6.77536 39.9896 6.90103 40.0429 7.00624C40.0725 7.06762 40.1673 7.3365 40.1021 8.28635C40.0459 9.13976 39.8889 9.98439 39.6372 10.794C39.0391 12.7346 39.1338 14.5729 39.1398 14.6606C39.5997 19.638 46.7926 20.5102 51.0615 17.706C51.5293 17.3991 51.9113 17.0484 52.1926 16.6626C53.768 14.4998 52.8412 11.5626 52.1512 10.0019ZM41.2097 14.757C41.2185 14.9178 41.0942 15.0551 40.9313 15.0639H40.9135C40.7566 15.0639 40.6263 14.9441 40.6174 14.7892C40.5908 14.3625 40.5967 13.9153 40.6293 13.4302C40.6411 13.2694 40.7832 13.1496 40.9461 13.1583C41.109 13.17 41.2333 13.3103 41.2215 13.471C41.1889 13.9329 41.183 14.3537 41.2097 14.757ZM41.3547 12.1676C41.337 12.3166 41.2096 12.4248 41.0616 12.4248C41.0497 12.4248 41.0379 12.4248 41.0231 12.4219C40.8632 12.4014 40.7477 12.2582 40.7654 12.0974L40.9076 10.9693C40.9283 10.8115 41.0734 10.6975 41.2392 10.715C41.4021 10.7355 41.5176 10.8816 41.4969 11.0424L41.3547 12.1676Z" fill="#FF6B09"/>
<path d="M50.1483 3.99843C49.9868 3.97374 49.8761 3.82477 49.901 3.66537C49.9195 3.54663 50.0264 2.93872 50.3168 2.63304C50.4285 2.51517 50.6157 2.50904 50.7354 2.61978C50.8547 2.73007 50.8607 2.91505 50.7488 3.03292C50.6259 3.16236 50.5212 3.5328 50.4863 3.75445C50.4613 3.91216 50.3122 4.02284 50.1483 3.99843Z" fill="#FF6B09"/>
<path d="M39.3526 5.45415C39.2959 5.23679 39.1551 4.87833 39.0199 4.76131C38.8969 4.65484 38.8846 4.47019 38.9924 4.3489C39.1 4.22732 39.2869 4.2149 39.4103 4.32178C39.7294 4.59791 39.8961 5.19257 39.9263 5.30886C39.9668 5.46514 39.8714 5.6241 39.7132 5.66434C39.5515 5.70447 39.3929 5.60782 39.3526 5.45415Z" fill="#FF6B09"/>
</g>
<defs>
<clipPath id="clip0_12_27">
<rect width="14.2137" height="19.2893" fill="white" transform="translate(38.8809)"/>
</clipPath>
</defs>
</svg>
