<!-- Generated by IcoMoon.io -->
<svg version="1.1" xmlns="http://www.w3.org/2000/svg" width="2825" height="1024" viewBox="0 0 2825 1024">
<title></title>
<g id="icomoon-ignore">
</g>
<path fill="#111518" d="M395.031 154.396v413.207h-117.441v-161.149h-160.148v161.149h-117.442v-413.207h117.442v155.248h160.148v-155.248h117.441z"></path>
<path fill="#111518" d="M824.86 408.223c0 0.787-0.593 10.035-1.78 27.743h-233.698c4.746 16.529 13.842 29.318 27.284 38.372 13.842 8.658 31.041 12.984 51.606 12.984 15.42 0 28.668-2.165 39.738-6.49 11.469-4.329 22.934-11.412 34.403-21.253l59.314 61.391c-31.239 34.632-76.909 51.949-137.015 51.949-37.567 0-70.585-7.083-99.056-21.253-28.471-14.167-50.614-33.841-66.433-59.028-15.42-25.187-23.132-53.718-23.132-85.592 0-31.483 7.514-59.621 22.539-84.413 15.424-25.186 36.578-44.862 63.467-59.029s57.139-21.251 90.751-21.251c32.030 0 61.094 6.69 87.192 20.070 26.098 12.986 46.659 32.073 61.687 57.259 15.42 24.792 23.132 54.307 23.132 88.544zM653.443 322.040c-17.397 0-32.030 4.919-43.891 14.757-11.469 9.838-18.785 23.22-21.949 40.14h131.679c-3.164-16.921-10.678-30.302-22.539-40.14-11.469-9.838-25.904-14.757-43.301-14.757z"></path>
<path fill="#111518" d="M900.548 129.603h112.696v438h-112.696v-438z"></path>
<path fill="#111518" d="M1110.207 129.603h112.7v438h-112.7v-438z"></path>
<path fill="#ff6b09" d="M128 866.12v123.586h-28.601v-50.67h-56.143v50.67h-28.601v-123.586h28.601v48.728h56.143v-48.728h28.601zM284.71 966.755v22.952h-95.691v-123.586h93.396v22.952h-64.971v26.836h57.379v22.246h-57.379v28.601h67.266zM339.247 866.12h28.602v100.281h61.97v23.305h-90.572v-123.586zM477.579 866.12h28.601v100.281h61.97v23.305h-90.571v-123.586zM615.908 866.12h28.601v123.586h-28.601v-123.586zM746.228 991.825c-9.77 0-19.244-1.296-28.425-3.884-9.064-2.708-16.363-6.179-21.892-10.417l9.71-21.539c5.297 3.884 11.592 7.002 18.891 9.357 7.295 2.355 14.594 3.531 21.892 3.531 8.121 0 14.124-1.176 18.008-3.531 3.884-2.472 5.826-5.71 5.826-9.71 0-2.941-1.179-5.357-3.531-7.239-2.239-2.002-5.18-3.591-8.828-4.767-3.531-1.176-8.358-2.472-14.477-3.884-9.417-2.235-17.126-4.474-23.128-6.709s-11.183-5.826-15.537-10.77c-4.237-4.943-6.356-11.536-6.356-19.774 0-7.179 1.942-13.655 5.826-19.421 3.884-5.886 9.71-10.533 17.479-13.948 7.885-3.415 17.479-5.12 28.778-5.12 7.885 0 15.593 0.943 23.128 2.825 7.532 1.882 14.124 4.59 19.774 8.121l-8.828 21.716c-11.419-6.472-22.835-9.71-34.251-9.71-8.005 0-13.948 1.296-17.832 3.884-3.768 2.588-5.65 6.003-5.65 10.24s2.175 7.415 6.532 9.534c4.47 2.002 11.239 4.001 20.303 6.003 9.414 2.235 17.126 4.474 23.128 6.709s11.123 5.766 15.36 10.593c4.354 4.827 6.532 11.359 6.532 19.597 0 7.062-2.002 13.534-6.003 19.421-3.884 5.766-9.77 10.357-17.655 13.771-7.888 3.415-17.479 5.12-28.778 5.12zM963.33 866.12v123.586h-28.601v-50.67h-56.143v50.67h-28.601v-123.586h28.601v48.728h56.143v-48.728h28.601z"></path>
<path fill="#111518" d="M1201.819 966.755v22.952h-95.691v-123.586h93.396v22.952h-64.971v26.836h57.379v22.246h-57.379v28.601h67.266zM1369.702 866.12v123.586h-23.481l-61.617-75.034v75.034h-28.248v-123.586h23.658l61.44 75.034v-75.034h28.248zM1514.231 925.971h26.13v50.141c-6.709 5.060-14.477 8.944-23.305 11.652s-17.715 4.061-26.659 4.061c-12.828 0-24.364-2.708-34.604-8.121-10.24-5.533-18.301-13.125-24.188-22.775-5.766-9.77-8.651-20.773-8.651-33.015s2.885-23.188 8.651-32.839c5.886-9.77 14.008-17.362 24.364-22.775 10.357-5.533 22.009-8.298 34.957-8.298 10.83 0 20.657 1.826 29.484 5.473s16.243 8.944 22.246 15.89l-18.361 16.949c-8.828-9.297-19.481-13.948-31.956-13.948-7.885 0-14.89 1.649-21.010 4.943s-10.886 7.945-14.301 13.948c-3.415 6.003-5.12 12.888-5.12 20.657 0 7.652 1.705 14.477 5.12 20.48s8.121 10.71 14.124 14.124c6.119 3.294 13.065 4.943 20.833 4.943 8.238 0 15.653-1.766 22.246-5.297v-36.193zM1598.708 866.12h28.601v100.281h61.97v23.305h-90.571v-123.586zM1737.039 866.12h28.601v123.586h-28.601v-123.586zM1867.356 991.825c-9.767 0-19.244-1.296-28.425-3.884-9.061-2.708-16.359-6.179-21.892-10.417l9.71-21.539c5.297 3.884 11.596 7.002 18.891 9.357 7.299 2.355 14.597 3.531 21.892 3.531 8.121 0 14.124-1.176 18.008-3.531 3.884-2.472 5.826-5.71 5.826-9.71 0-2.941-1.176-5.357-3.531-7.239-2.235-2.002-5.176-3.591-8.828-4.767-3.531-1.176-8.354-2.472-14.477-3.884-9.414-2.235-17.126-4.474-23.128-6.709s-11.179-5.826-15.537-10.77c-4.237-4.943-6.356-11.536-6.356-19.774 0-7.179 1.942-13.655 5.826-19.421 3.884-5.886 9.71-10.533 17.479-13.948 7.888-3.415 17.479-5.12 28.778-5.12 7.888 0 15.597 0.943 23.128 2.825 7.535 1.882 14.124 4.59 19.774 8.121l-8.828 21.716c-11.416-6.472-22.832-9.71-34.251-9.71-8.001 0-13.948 1.296-17.832 3.884-3.764 2.588-5.65 6.003-5.65 10.24s2.179 7.415 6.532 9.534c4.474 2.002 11.243 4.001 20.303 6.003 9.417 2.235 17.126 4.474 23.128 6.709s11.123 5.766 15.36 10.593c4.357 4.827 6.532 11.359 6.532 19.597 0 7.062-1.999 13.534-6.003 19.421-3.884 5.766-9.767 10.357-17.655 13.771-7.885 3.415-17.479 5.12-28.778 5.12zM2084.461 866.12v123.586h-28.601v-50.67h-56.143v50.67h-28.601v-123.586h28.601v48.728h56.143v-48.728h28.601z"></path>
<path fill="#111518" d="M2340.896 477.272v90.313h-333.344v-413.206h325.636v90.315h-209.38v69.655h184.468v87.366h-184.468v75.557h217.088z"></path>
<path fill="#111518" d="M2824.828 154.379v413.206h-96.683l-183.282-220.179v220.179h-115.069v-413.206h96.683l183.282 220.182v-220.182h115.069z"></path>
<path fill="#ff6b09" d="M1841.477 353.171c-6.063-13.518-14.428-26.831-26.663-42.207-30.844-38.596-40.257-124.664-40.36-125.49-0.42-4.128-3.347-7.533-7.214-8.772-3.976-1.238-8.263-0.103-11.084 2.993-36.808 40.97-21.331 104.23-12.966 129.514 2.299 6.914 4.809 15.067 6.585 23.323 13.594 66.768-12.652 97.008-18.82 103.095-5.96 1.653-10.039 0.826-13.803-3.199-12.966-14.138-17.253-60.476-11.186-120.846 1.254-12.281 0.939-23.323-0.837-33.643-12.789-74.203-59.685-121.8-71.624-138.492-32.832-48.297-36.179-128.689-36.281-129.411-0.106-3.818-2.302-7.224-5.752-8.875-3.347-1.651-7.422-1.445-10.561 0.722-54.788 37.048-50.084 126.315-42.45 176.16 1.776 11.558 5.226 23.323 11.186 38.184 21.225 53.147-4.181 121.774-4.389 122.394-0.212 0.619-0.42 1.135-0.523 1.754-3.241 16.924-8.679 27.036-14.746 27.036-0.625 0-1.254-0.102-1.984-0.307-7.426-1.55-11.292-9.393-11.398-16.203-0.42-88.028-89.19-117.646-90.13-117.956-3.976-1.238-8.365-0.103-11.084 3.096-2.825 3.199-3.347 7.637-1.465 11.352 1.045 2.167 4.393 11.662 2.090 45.201-1.984 30.134-7.528 59.958-16.416 88.546-21.119 68.523-17.775 133.434-17.563 136.531 16.239 175.754 270.223 206.551 420.959 107.534 16.518-10.837 30.007-23.22 39.94-36.843 55.628-76.369 22.902-180.083-1.462-235.192zM1455.129 521.075c0.311 5.678-4.078 10.526-9.83 10.837h-0.629c-5.54 0-10.141-4.23-10.455-9.7-0.939-15.067-0.731-30.858 0.42-47.987 0.417-5.678 5.434-9.908 11.186-9.601 5.752 0.413 10.141 5.367 9.724 11.042-1.151 16.31-1.359 31.168-0.417 45.409zM1460.249 429.642c-0.625 5.261-5.124 9.082-10.349 9.082-0.42 0-0.837 0-1.359-0.102-5.646-0.724-9.724-5.78-9.099-11.458l5.021-39.834c0.731-5.572 5.854-9.597 11.709-8.979 5.752 0.724 9.83 5.883 9.099 11.561l-5.021 39.731z"></path>
<path fill="#ff6b09" d="M1770.754 141.186c-5.703-0.872-9.611-6.132-8.732-11.76 0.653-4.193 4.428-25.658 14.682-36.452 3.944-4.162 10.554-4.378 14.781-0.468 4.213 3.894 4.424 10.426 0.473 14.588-4.34 4.571-8.037 17.651-9.269 25.477-0.883 5.569-6.148 9.477-11.935 8.615z"></path>
<path fill="#ff6b09" d="M1389.554 192.588c-2.002-7.675-6.974-20.332-11.748-24.464-4.343-3.759-4.777-10.28-0.971-14.562 3.799-4.293 10.399-4.732 14.756-0.958 11.268 9.75 17.154 30.748 18.22 34.854 1.43 5.518-1.939 11.131-7.525 12.552-5.71 1.417-11.31-1.996-12.733-7.422z"></path>
</svg>
