<svg width="80" height="29" viewBox="0 0 80 29" fill="none" xmlns="http://www.w3.org/2000/svg">
<path d="M11.1874 4.37254V16.0747H7.86144V11.5109H3.326V16.0747H0V4.37254H3.326V8.76921H7.86144V4.37254H11.1874Z" fill="white"/>
<path d="M23.3603 11.561C23.3603 11.5833 23.3435 11.8452 23.3099 12.3467H16.6915C16.8259 12.8148 17.0835 13.177 17.4642 13.4334C17.8562 13.6786 18.3433 13.8011 18.9257 13.8011C19.3624 13.8011 19.7376 13.7398 20.0511 13.6173C20.3759 13.4947 20.7006 13.2941 21.0254 13.0154L22.7052 14.754C21.8205 15.7348 20.5271 16.2252 18.8249 16.2252C17.761 16.2252 16.8259 16.0246 16.0196 15.6233C15.2133 15.2221 14.5862 14.6649 14.1382 13.9516C13.7015 13.2383 13.4831 12.4303 13.4831 11.5276C13.4831 10.636 13.6959 9.83912 14.1214 9.13699C14.5582 8.42372 15.1573 7.86647 15.9188 7.46526C16.6803 7.06404 17.537 6.86343 18.4889 6.86343C19.396 6.86343 20.2191 7.05289 20.9582 7.43182C21.6973 7.7996 22.2796 8.34013 22.7052 9.05341C23.1419 9.75554 23.3603 10.5914 23.3603 11.561ZM18.5057 9.12028C18.013 9.12028 17.5986 9.25959 17.2627 9.53821C16.9379 9.81683 16.7307 10.1958 16.6411 10.675H20.3703C20.2807 10.1958 20.0679 9.81683 19.732 9.53821C19.4072 9.25959 18.9984 9.12028 18.5057 9.12028Z" fill="white"/>
<path d="M25.5038 3.67041H28.6954V16.0747H25.5038V3.67041Z" fill="white"/>
<path d="M31.4414 3.67041H34.6331V16.0747H31.4414V3.67041Z" fill="white"/>
<path d="M3.625 24.5288V28.0288H2.815V26.5938H1.225V28.0288H0.415V24.5288H1.225V25.9088H2.815V24.5288H3.625ZM8.06309 27.3788V28.0288H5.35309V24.5288H7.99809V25.1788H6.15809V25.9388H7.78309V26.5688H6.15809V27.3788H8.06309ZM9.60758 24.5288H10.4176V27.3688H12.1726V28.0288H9.60758V24.5288ZM13.5252 24.5288H14.3352V27.3688H16.0902V28.0288H13.5252V24.5288ZM17.4427 24.5288H18.2527V28.0288H17.4427V24.5288ZM21.1334 28.0888C20.8567 28.0888 20.5884 28.0521 20.3284 27.9788C20.0717 27.9021 19.865 27.8038 19.7084 27.6838L19.9834 27.0738C20.1334 27.1838 20.3117 27.2721 20.5184 27.3388C20.725 27.4055 20.9317 27.4388 21.1384 27.4388C21.3684 27.4388 21.5384 27.4055 21.6484 27.3388C21.7584 27.2688 21.8134 27.1771 21.8134 27.0638C21.8134 26.9805 21.78 26.9121 21.7134 26.8588C21.65 26.8021 21.5667 26.7571 21.4634 26.7238C21.3634 26.6905 21.2267 26.6538 21.0534 26.6138C20.7867 26.5505 20.5684 26.4871 20.3984 26.4238C20.2284 26.3605 20.0817 26.2588 19.9584 26.1188C19.8384 25.9788 19.7784 25.7921 19.7784 25.5588C19.7784 25.3555 19.8334 25.1721 19.9434 25.0088C20.0534 24.8421 20.2184 24.7105 20.4384 24.6138C20.6617 24.5171 20.9334 24.4688 21.2534 24.4688C21.4767 24.4688 21.695 24.4955 21.9084 24.5488C22.1217 24.6021 22.3084 24.6788 22.4684 24.7788L22.2184 25.3938C21.895 25.2105 21.5717 25.1188 21.2484 25.1188C21.0217 25.1188 20.8534 25.1555 20.7434 25.2288C20.6367 25.3021 20.5834 25.3988 20.5834 25.5188C20.5834 25.6388 20.645 25.7288 20.7684 25.7888C20.895 25.8455 21.0867 25.9021 21.3434 25.9588C21.61 26.0221 21.8284 26.0855 21.9984 26.1488C22.1684 26.2121 22.3134 26.3121 22.4334 26.4488C22.5567 26.5855 22.6184 26.7705 22.6184 27.0038C22.6184 27.2038 22.5617 27.3871 22.4484 27.5538C22.3384 27.7171 22.1717 27.8471 21.9484 27.9438C21.725 28.0405 21.4534 28.0888 21.1334 28.0888ZM27.2818 24.5288V28.0288H26.4718V26.5938H24.8818V28.0288H24.0718V24.5288H24.8818V25.9088H26.4718V24.5288H27.2818Z" fill="#FF6B09"/>
<path d="M34.0359 27.3788V28.0288H31.3259V24.5288H33.9709V25.1788H32.1309V25.9388H33.7559V26.5688H32.1309V27.3788H34.0359ZM38.7904 24.5288V28.0288H38.1254L36.3804 25.9038V28.0288H35.5804V24.5288H36.2504L37.9904 26.6538V24.5288H38.7904ZM42.8835 26.2238H43.6235V27.6438C43.4335 27.7871 43.2135 27.8971 42.9635 27.9738C42.7135 28.0505 42.4618 28.0888 42.2085 28.0888C41.8452 28.0888 41.5185 28.0121 41.2285 27.8588C40.9385 27.7021 40.7102 27.4871 40.5435 27.2138C40.3802 26.9371 40.2985 26.6255 40.2985 26.2788C40.2985 25.9321 40.3802 25.6221 40.5435 25.3488C40.7102 25.0721 40.9402 24.8571 41.2335 24.7038C41.5268 24.5471 41.8568 24.4688 42.2235 24.4688C42.5302 24.4688 42.8085 24.5205 43.0585 24.6238C43.3085 24.7271 43.5185 24.8771 43.6885 25.0738L43.1685 25.5538C42.9185 25.2905 42.6168 25.1588 42.2635 25.1588C42.0402 25.1588 41.8418 25.2055 41.6685 25.2988C41.4952 25.3921 41.3602 25.5238 41.2635 25.6938C41.1668 25.8638 41.1185 26.0588 41.1185 26.2788C41.1185 26.4955 41.1668 26.6888 41.2635 26.8588C41.3602 27.0288 41.4935 27.1621 41.6635 27.2588C41.8368 27.3521 42.0335 27.3988 42.2535 27.3988C42.4868 27.3988 42.6968 27.3488 42.8835 27.2488V26.2238ZM45.2759 24.5288H46.0859V27.3688H47.8409V28.0288H45.2759V24.5288ZM49.1935 24.5288H50.0035V28.0288H49.1935V24.5288ZM52.8841 28.0888C52.6075 28.0888 52.3391 28.0521 52.0791 27.9788C51.8225 27.9021 51.6158 27.8038 51.4591 27.6838L51.7341 27.0738C51.8841 27.1838 52.0625 27.2721 52.2691 27.3388C52.4758 27.4055 52.6825 27.4388 52.8891 27.4388C53.1191 27.4388 53.2891 27.4055 53.3991 27.3388C53.5091 27.2688 53.5641 27.1771 53.5641 27.0638C53.5641 26.9805 53.5308 26.9121 53.4641 26.8588C53.4008 26.8021 53.3175 26.7571 53.2141 26.7238C53.1141 26.6905 52.9775 26.6538 52.8041 26.6138C52.5375 26.5505 52.3191 26.4871 52.1491 26.4238C51.9791 26.3605 51.8325 26.2588 51.7091 26.1188C51.5891 25.9788 51.5291 25.7921 51.5291 25.5588C51.5291 25.3555 51.5841 25.1721 51.6941 25.0088C51.8041 24.8421 51.9691 24.7105 52.1891 24.6138C52.4125 24.5171 52.6841 24.4688 53.0041 24.4688C53.2275 24.4688 53.4458 24.4955 53.6591 24.5488C53.8725 24.6021 54.0591 24.6788 54.2191 24.7788L53.9691 25.3938C53.6458 25.2105 53.3225 25.1188 52.9991 25.1188C52.7725 25.1188 52.6041 25.1555 52.4941 25.2288C52.3875 25.3021 52.3341 25.3988 52.3341 25.5188C52.3341 25.6388 52.3958 25.7288 52.5191 25.7888C52.6458 25.8455 52.8375 25.9021 53.0941 25.9588C53.3608 26.0221 53.5791 26.0855 53.7491 26.1488C53.9191 26.2121 54.0641 26.3121 54.1841 26.4488C54.3075 26.5855 54.3691 26.7705 54.3691 27.0038C54.3691 27.2038 54.3125 27.3871 54.1991 27.5538C54.0891 27.7171 53.9225 27.8471 53.6991 27.9438C53.4758 28.0405 53.2041 28.0888 52.8841 28.0888ZM59.0326 24.5288V28.0288H58.2226V26.5938H56.6326V28.0288H55.8226V24.5288H56.6326V25.9088H58.2226V24.5288H59.0326Z" fill="white"/>
<path d="M66.2949 13.5165V16.0742H56.8545V4.37207H66.0766V6.92983H60.1469V8.90248H65.3711V11.3767H60.1469V13.5165H66.2949Z" fill="white"/>
<path d="M80 4.37207V16.0742H77.2619L72.0713 9.83865V16.0742H68.8125V4.37207H71.5506L76.7412 10.6077V4.37207H80Z" fill="white"/>
<g clip-path="url(#clip0_13_0)">
<path d="M52.1512 10.0019C51.9795 9.61907 51.7426 9.24205 51.3961 8.80658C50.5226 7.71352 50.256 5.27605 50.2531 5.25267C50.2412 5.13577 50.1583 5.03932 50.0488 5.00425C49.9362 4.96918 49.8148 5.00133 49.7349 5.08901C48.6925 6.24929 49.1308 8.04085 49.3677 8.75689C49.4328 8.95271 49.5039 9.1836 49.5542 9.41741C49.9392 11.3083 49.1959 12.1647 49.0212 12.3371C48.8524 12.3839 48.7369 12.3605 48.6303 12.2465C48.2631 11.8461 48.1417 10.5338 48.3135 8.82411C48.349 8.47632 48.3401 8.1636 48.2898 7.87134C47.9276 5.76989 46.5995 4.42192 46.2614 3.94919C45.3316 2.5814 45.2368 0.304679 45.2339 0.284221C45.2309 0.176084 45.1687 0.0796377 45.071 0.0328758C44.9762 -0.0138861 44.8608 -0.00804087 44.7719 0.0533341C43.2203 1.10255 43.3535 3.63062 43.5697 5.04224C43.62 5.36958 43.7177 5.70276 43.8865 6.12361C44.4876 7.62876 43.7681 9.5723 43.7622 9.58984C43.7562 9.60738 43.7503 9.62199 43.7474 9.63952C43.6556 10.1188 43.5016 10.4052 43.3298 10.4052C43.3121 10.4052 43.2943 10.4023 43.2736 10.3965C43.0633 10.3526 42.9538 10.1305 42.9508 9.93763C42.9389 7.44464 40.4249 6.60585 40.3983 6.59708C40.2857 6.56201 40.1614 6.59415 40.0844 6.68476C40.0044 6.77536 39.9896 6.90103 40.0429 7.00624C40.0725 7.06762 40.1673 7.3365 40.1021 8.28635C40.0459 9.13976 39.8889 9.98439 39.6372 10.794C39.0391 12.7346 39.1338 14.5729 39.1398 14.6606C39.5997 19.638 46.7926 20.5102 51.0615 17.706C51.5293 17.3991 51.9113 17.0484 52.1926 16.6626C53.768 14.4998 52.8412 11.5626 52.1512 10.0019ZM41.2097 14.757C41.2185 14.9178 41.0942 15.0551 40.9313 15.0639H40.9135C40.7566 15.0639 40.6263 14.9441 40.6174 14.7892C40.5908 14.3625 40.5967 13.9153 40.6293 13.4302C40.6411 13.2694 40.7832 13.1496 40.9461 13.1583C41.109 13.17 41.2333 13.3103 41.2215 13.471C41.1889 13.9329 41.183 14.3537 41.2097 14.757ZM41.3547 12.1676C41.337 12.3166 41.2096 12.4248 41.0616 12.4248C41.0497 12.4248 41.0379 12.4248 41.0231 12.4219C40.8632 12.4014 40.7477 12.2582 40.7654 12.0974L40.9076 10.9693C40.9283 10.8115 41.0734 10.6975 41.2392 10.715C41.4021 10.7355 41.5176 10.8816 41.4969 11.0424L41.3547 12.1676Z" fill="#FF6B09"/>
<path d="M50.1483 3.99843C49.9868 3.97374 49.8761 3.82477 49.901 3.66537C49.9195 3.54663 50.0264 2.93872 50.3168 2.63304C50.4285 2.51517 50.6157 2.50904 50.7354 2.61978C50.8547 2.73007 50.8607 2.91505 50.7488 3.03292C50.6259 3.16236 50.5212 3.5328 50.4863 3.75445C50.4613 3.91216 50.3122 4.02284 50.1483 3.99843Z" fill="#FF6B09"/>
<path d="M39.3526 5.45415C39.2959 5.23679 39.1551 4.87833 39.0199 4.76131C38.8969 4.65484 38.8846 4.47019 38.9924 4.3489C39.1 4.22732 39.2869 4.2149 39.4103 4.32178C39.7294 4.59791 39.8961 5.19257 39.9263 5.30886C39.9668 5.46514 39.8714 5.6241 39.7132 5.66434C39.5515 5.70447 39.3929 5.60782 39.3526 5.45415Z" fill="#FF6B09"/>
</g>
<defs>
<clipPath id="clip0_13_0">
<rect width="14.2137" height="19.2893" fill="white" transform="translate(38.8809)"/>
</clipPath>
</defs>
</svg>
