<svg width="61" height="63" viewBox="0 0 61 63" fill="none" xmlns="http://www.w3.org/2000/svg">
<g clip-path="url(#clip0_1_1915)">
<path d="M13.8721 51.5018C18.1733 51.5018 43.0568 51.5018 47.353 51.5018C47.5188 47.6242 47.2453 41.1905 44.8978 38.1284L44.8129 38.0184L39.6831 35.4026C39.7945 35.0211 39.8493 34.6715 39.8713 34.4146C39.8967 34.1062 39.8548 33.8165 39.7464 33.5541C38.9001 31.4974 37.1093 30.4154 36.1243 29.9541C36.4245 29.3399 36.618 28.6805 36.7115 28.0068C37.2691 27.8473 37.7176 27.3985 37.8646 26.7998L38.4634 24.3293C38.5695 23.8935 38.5029 23.4415 38.2748 23.0571C38.1767 22.8914 38.0498 22.7519 37.9074 22.6326C39.5956 18.7382 36.7681 15.0661 36.6141 14.8728C33.5519 11.5104 29.6834 12.1391 29.4789 12.1764C23.8963 13.3636 21.7419 17.7087 22.9582 22.8048C22.5979 23.2102 22.4466 23.7749 22.5802 24.3287L23.1819 26.8019C23.3278 27.3962 23.7727 27.8434 24.3264 28.0048C24.4972 29.2386 25.0114 30.3546 25.7667 31.2539V33.2124C17.7555 37.3789 22.8316 34.7208 16.4116 38.0193C16.3989 38.0808 13.3991 41.3186 13.845 50.9155L13.8721 51.5018ZM46.1896 50.2708H40.6793V47.92L44.3238 39.4468C46.1495 42.5244 46.2173 48.4005 46.1896 50.2708ZM38.6691 34.31C38.4564 36.7908 37.1169 36.0409 36.2899 37.9522C35.6395 37.2259 35.4439 36.3549 35.6187 35.4226C35.9345 33.7107 34.9057 33.2023 35.1599 31.4035L35.1985 31.3623V31.3566C35.2203 31.3318 35.4232 31.0864 35.4819 31.0088C37.662 31.974 38.7116 33.7691 38.6691 34.31ZM26.9737 32.3601C27.9857 33.073 29.2074 33.4943 30.5215 33.4943C31.759 33.4943 32.9344 33.1286 33.9421 32.4552C34.0818 33.8693 34.626 34.1524 34.4329 35.193C34.3967 35.3861 34.3771 35.5765 34.3655 35.7637L30.6128 40.059L25.8157 34.5665L26.9737 33.9523V32.3601H26.9737ZM25.465 27.1033V24.7218C25.465 23.8448 25.465 20.3656 25.465 20.5374C26.049 19.4404 26.8452 18.6449 27.8347 18.1679C30.4848 19.6908 33.5352 21.9634 35.5809 24.2506C35.579 27.1634 35.589 27.1713 35.57 27.4107L35.5687 27.4258C35.409 30.0708 33.2676 32.2633 30.5215 32.2633C27.8518 32.2633 25.6353 30.1346 25.475 27.3997C25.4667 27.3017 25.465 27.2034 25.465 27.1033ZM24.7177 35.1605L30.6128 41.9098L34.5706 37.3796C34.6611 37.6441 34.788 37.894 34.9331 38.1354L30.6128 43.6222L24.1705 35.4395L24.7177 35.1605ZM36.7879 26.1127V24.2112C36.8409 24.1495 37.2909 23.6255 37.2379 23.6872C37.2627 24.65 37.3651 23.5137 36.7879 26.1127ZM29.7023 13.386C29.9417 13.4012 33.1587 12.8891 35.7012 15.6768C35.8013 15.8043 37.8709 18.5125 37.0394 21.4751C36.7549 20.1568 36.2588 18.4674 35.4749 17.6612L34.618 18.528C35.392 19.3242 35.9004 21.7488 36.0941 23.0058C32.5436 19.2326 27.9635 16.8445 27.9007 16.8041C27.671 16.9492 25.7328 17.3234 24.3252 20.1019L24.258 20.2348V22.2754C24.1976 22.2761 24.0201 22.278 24.0806 22.2773C23.1862 17.8921 24.8989 14.4085 29.7023 13.386ZM23.9534 23.5437L24.258 24.797V26.1142L23.7518 24.0333C23.6775 23.7231 23.9037 23.6055 23.9534 23.5437ZM23.066 36.0026L30.6128 45.5884L35.7189 39.1026C36.2744 39.6075 36.5414 39.6791 37.7191 40.2941L37.3219 38.9257C37.2211 38.5783 37.6201 38.0211 37.8611 37.765C38.3991 37.4686 38.8475 37.0459 39.183 36.5241L43.349 38.6486L39.4723 47.6621V50.2708H21.7527V47.6618L17.8743 38.6495L23.066 36.0026ZM16.9007 39.4495L20.5458 47.9203V50.2708H15.0355C15.0078 48.4011 15.0761 42.528 16.9007 39.4495Z" fill="#FF6B09"/>
</g>
<path d="M59.8235 9.39247V1.02881H1V61.9641H59.8235V53.6004" stroke="#FF6B09" stroke-width="2"/>
<defs>
<clipPath id="clip0_1_1915">
<rect width="33.1915" height="40.6235" fill="white" transform="translate(14 11.1846)"/>
</clipPath>
</defs>
</svg>
