<svg width="61" height="63" viewBox="0 0 61 63" fill="none" xmlns="http://www.w3.org/2000/svg">
<g clip-path="url(#clip0_1_1931)">
<path d="M13.6772 28.6297C13.6772 29.0822 13 29.0822 13 28.6297C13 19.0072 20.6926 11.2031 30.1776 11.2031C39.6667 11.2031 47.3552 19.0072 47.3552 28.6297C47.3552 29.0822 46.6821 29.0822 46.6821 28.6297C46.6821 22.1256 36.1468 22.1215 36.1468 28.6297C36.1468 29.0822 35.4534 29.0822 35.4534 28.6297C35.4534 22.142 24.9019 22.142 24.9019 28.6297C24.9019 29.0822 24.2084 29.0822 24.2084 28.6297C24.2084 22.1544 13.6772 22.1091 13.6772 28.6297ZM24.2693 26.1037C24.4517 22.3601 25.0316 19.0031 25.8751 16.4401C26.5483 14.4038 27.3998 12.8569 28.365 11.9889C21.1225 12.7911 15.2587 18.3613 13.9489 25.5854C16.4428 21.9363 22.2011 22.2284 24.2693 26.1037ZM35.4006 25.9351C35.2141 22.3354 34.6504 19.1142 33.8394 16.6582C31.747 10.3022 28.6083 10.3022 26.5158 16.6582C25.7048 19.1142 25.1452 22.3354 24.9546 25.9351C27.2052 22.0556 33.15 22.0556 35.4006 25.9351ZM46.4063 25.5854C45.1006 18.3613 39.2368 12.7911 31.9903 11.9889C32.9594 12.8569 33.807 14.4038 34.4801 16.4401C35.3236 19.0031 35.9035 22.3601 36.086 26.1037C38.1663 22.2079 43.9408 21.9775 46.4063 25.5854Z" fill="#FF6B09"/>
<path d="M27.9234 36.6036V33.0648C27.2948 33.4886 26.8001 34.1429 26.8001 34.9412C26.8001 35.7189 27.3029 36.2332 27.9234 36.6036ZM28.6006 37.7022C27.3962 37.1426 26.127 36.4883 26.127 34.9412C26.127 33.3446 27.3232 32.5464 28.6006 31.9497V37.7022Z" fill="#FF6B09"/>
<path d="M32.4319 41.9424V45.5215C33.0686 45.0936 33.5674 44.4354 33.5674 43.6373C33.5674 42.8516 33.0564 42.3209 32.4319 41.9424ZM31.7588 40.8398C32.9672 41.4076 34.2446 42.0822 34.2446 43.6373C34.2446 45.2376 33.0402 46.0357 31.7588 46.6281V40.8398Z" fill="#FF6B09"/>
<path d="M32.4318 29.037C35.2055 29.6871 38.0563 31.7934 38.0563 34.9407C38.0563 37.6353 33.5673 37.5366 33.5673 34.9407C33.5673 34.1384 33.0685 33.4802 32.4318 33.0564V38.092C34.9987 38.9436 38.0644 40.4699 38.0644 43.6377C38.0644 46.789 35.2136 48.8913 32.4318 49.5372C32.4197 52.5363 27.9306 52.5322 27.9225 49.5331C26.341 49.1628 24.9663 48.4141 23.9728 47.4226C22.9306 46.3776 22.3142 45.0653 22.3142 43.6377C22.3142 40.9842 26.7992 40.9842 26.7992 43.6377C26.7992 44.4317 27.2939 45.0858 27.9225 45.5096V40.4781C25.3759 39.643 22.2939 38.0714 22.2939 34.9324C22.2939 31.7811 25.1447 29.6788 27.9225 29.0329C27.9347 26.0338 32.4237 26.0379 32.4318 29.037ZM28.5997 29.0453V29.5924C25.9598 30.1231 22.9671 31.8387 22.9671 34.9324C22.9671 37.9069 26.2518 39.2398 28.5997 39.9762V46.6245C27.3304 46.0362 26.1261 45.2422 26.1261 43.6377C26.1261 41.8851 22.9874 41.8851 22.9874 43.6377C22.9874 44.876 23.5308 46.0197 24.4472 46.933C25.6111 48.1014 27.0222 48.6568 28.5997 48.9736V49.5249C28.5997 51.6354 31.7587 51.6354 31.7587 49.5249V48.9777C34.4067 48.4429 37.3872 46.7273 37.3872 43.6377C37.3872 40.6345 34.1106 39.3427 31.7587 38.5898V32.4764V31.9457C33.032 32.534 34.2445 33.328 34.2445 34.9407C34.2445 36.648 37.3791 36.7179 37.3791 34.9407C37.3791 31.851 34.4026 30.1314 31.7587 29.5966V29.0453C31.7587 26.9348 28.5997 26.9348 28.5997 29.0453Z" fill="#FF6B09"/>
</g>
<path d="M59.8235 9.41275V1.05811H1V61.9277H59.8235V53.573" stroke="#FF6B09" stroke-width="2"/>
<defs>
<clipPath id="clip0_1_1931">
<rect width="35" height="40.5797" fill="white" transform="translate(13 11.2031)"/>
</clipPath>
</defs>
</svg>
