<svg width="61" height="63" viewBox="0 0 61 63" fill="none" xmlns="http://www.w3.org/2000/svg">
<g clip-path="url(#clip0_1_1922)">
<path d="M48.6619 10.0222H28.4873C27.174 10.0222 26.1056 11.106 26.1056 12.4384V20.9106L11.1177 27.2925C10.948 27.3647 10.8326 27.5272 10.8196 27.7135C10.8066 27.8999 10.8974 28.0778 11.0554 28.1739L12.9668 29.3345V41.702C11.9893 41.9281 11.2559 42.8156 11.2559 43.8775V45.0696C11.2559 45.343 11.4745 45.5648 11.744 45.5648H15.1667C15.4362 45.5648 15.6548 45.343 15.6548 45.0696V43.8775C15.6548 42.817 14.9212 41.9307 13.943 41.7032V29.9272L15.4543 30.8449C15.4078 31.1984 15.4484 30.2287 15.4327 36.6027C15.4327 38.698 20.7229 39.8204 26.1056 39.8848V49.5364C26.1056 50.035 26.2561 50.4987 26.5134 50.8835C26.9414 51.5258 27.6659 51.9491 28.486 51.9491H48.6606C49.9727 51.9491 51.0401 50.8659 51.0401 49.5352C51.0401 49.6013 51.0374 47.4907 51.0401 12.4387C51.0401 11.1244 49.9689 10.0222 48.6619 10.0222ZM14.6786 43.8775V44.5744H12.2321V43.8775C12.2321 43.1914 12.7796 42.6331 13.4523 42.6331C14.1285 42.6331 14.6786 43.1914 14.6786 43.8775ZM48.6619 50.9562H28.4873C28.0032 50.9562 27.5756 50.7076 27.3227 50.3303C27.1713 50.1031 27.0828 49.8294 27.0828 49.5352V46.1895H50.0614V49.5364C50.0614 50.312 49.4243 50.9562 48.6619 50.9562ZM50.0614 45.1992H27.0818V39.8877C29.7099 39.8572 37.7611 39.27 37.7611 36.6027C37.7582 32.5985 37.7681 30.9748 37.7487 30.8374L42.1317 28.1739C42.2897 28.0778 42.3805 27.8999 42.3675 27.7135C42.3545 27.5272 42.2391 27.3647 42.0695 27.2925L27.0818 20.9105V16.7747H50.0614V45.1992ZM26.5937 33.3151C23.8863 33.3151 18.6735 33.6699 16.4089 35.1701C16.4232 30.5814 16.2519 30.8803 16.8089 30.4911C18.2157 29.4402 22.2393 28.7065 26.5937 28.7065C28.4929 28.7065 36.7849 29.2362 36.7849 31.0173V35.1707C34.4991 33.6566 29.3127 33.3151 26.5937 33.3151ZM27.0828 12.4387C27.0828 11.6538 27.7123 11.0151 28.486 11.0151H48.6606C49.4351 11.0151 50.0614 11.6627 50.0614 12.4384V15.7844H27.0828V12.4387ZM26.5937 21.7767L40.8028 27.827L37.282 29.9645C35.4102 28.0813 29.2184 27.7161 26.5937 27.7161C23.9656 27.7161 17.7733 28.0824 15.9055 29.965L12.3837 27.827L26.5937 21.7767ZM16.4089 36.6027C16.4089 35.8013 19.9069 34.3055 26.5937 34.3055C33.2847 34.3055 36.7849 35.8013 36.7849 36.6027C36.7849 37.4048 33.2847 38.9006 26.5937 38.9006C19.9069 38.9006 16.4089 37.4048 16.4089 36.6027Z" fill="#FF6B09"/>
<path d="M38.5733 46.9363C37.6832 46.9363 36.959 47.6707 36.959 48.5739C36.959 49.4772 37.6832 50.2123 38.5733 50.2123C39.4637 50.2123 40.1879 49.4772 40.1879 48.5739C40.1879 47.6707 39.4637 46.9363 38.5733 46.9363ZM38.5733 49.2219C38.2215 49.2219 37.9352 48.9311 37.9352 48.5739C37.9352 48.2168 38.2215 47.9266 38.5733 47.9266C38.9253 47.9266 39.2117 48.2168 39.2117 48.5739C39.2117 48.9311 38.9253 49.2219 38.5733 49.2219Z" fill="#FF6B09"/>
<path d="M40.4355 12.9045H36.7119V13.8949H40.4355V12.9045Z" fill="#FF6B09"/>
</g>
<path d="M59.8235 9.41275V1.05811H1V61.9277H59.8235V53.573" stroke="#FF6B09" stroke-width="2"/>
<defs>
<clipPath id="clip0_1_1922">
<rect width="41.8723" height="41.5942" fill="white" transform="translate(10 10.1885)"/>
</clipPath>
</defs>
</svg>
